<!-- icon666.com - MILLIONS vector ICONS FREE --><svg version="1.1" id="Capa_1" xmlns="http://www.w3.org/2000/svg" xmlns:xlink="http://www.w3.org/1999/xlink" x="0px" y="0px" viewBox="0 0 512 512" style="enable-background:new 0 0 512 512;" xml:space="preserve"><g><g><path d="M300.679,198.849c-16.604,0-29.112,7.116-29.112,26.524v31.916c0,19.408,12.508,26.525,29.112,26.525 c16.389,0,29.112-7.116,29.112-26.525v-31.916C329.791,205.965,317.068,198.849,300.679,198.849z M314.265,257.289 c0,8.842-5.176,12.723-13.586,12.723c-8.41,0-13.37-3.882-13.37-12.723v-31.916c0-8.841,4.96-12.723,13.37-12.723 s13.586,3.882,13.586,12.723V257.289z" fill="#c72c72"></path></g></g><g><g><path d="M292.269,117.119c-2.588,0-5.176,1.079-6.469,3.882l-79.142,158.5c-0.647,1.078-0.863,2.157-0.863,3.235 c0,3.882,3.45,7.979,8.41,7.979c3.019,0,6.038-1.509,7.332-4.097l79.142-157.853c0.431-1.078,0.647-2.156,0.647-3.45 C301.326,120.353,296.582,117.119,292.269,117.119z" fill="#c72c72"></path></g></g><g><g><path d="M205.364,125.529c-16.605,0-29.112,7.116-29.112,26.525v31.915c0,19.408,12.508,26.525,29.112,26.525 c16.389,0,29.112-7.116,29.112-26.525v-31.915C234.476,132.645,221.753,125.529,205.364,125.529z M218.949,183.969 c0,8.842-5.176,12.723-13.586,12.723c-8.41,0-13.37-3.882-13.37-12.723v-31.915c0-8.842,4.96-12.723,13.37-12.723 c8.41,0,13.586,3.882,13.586,12.723V183.969z" fill="#c72c72"></path></g></g><g><g><path d="M459.02,201.103c5.433-7.5,7.539-16.653,5.931-25.772c-1.608-9.12-6.718-17.001-14.388-22.19 c-6.773-4.582-9.816-12.943-7.573-20.807c2.54-8.906,1.389-18.227-3.241-26.247c-4.631-8.02-12.127-13.677-21.109-15.93 c-7.932-1.99-13.651-8.806-14.233-16.962c-0.659-9.237-4.929-17.603-12.023-23.556c-7.094-5.952-16.071-8.703-25.285-7.75 c-8.133,0.843-15.84-3.606-19.176-11.072c-3.779-8.454-10.652-14.855-19.354-18.022c-8.702-3.168-18.081-2.682-26.411,1.365 c-7.354,3.575-16.117,2.028-21.806-3.845C273.909,3.664,265.261,0,256,0s-17.909,3.664-24.351,10.316 c-5.688,5.874-14.451,7.419-21.806,3.845c-8.329-4.048-17.709-4.533-26.411-1.365c-8.702,3.167-15.576,9.568-19.354,18.022 c-3.337,7.465-11.038,11.917-19.176,11.072c-9.209-0.957-18.191,1.797-25.285,7.75s-11.364,14.318-12.023,23.556 c-0.582,8.156-6.301,14.972-14.233,16.962c-8.982,2.253-16.479,7.91-21.109,15.93c-4.63,8.02-5.782,17.341-3.241,26.247 c2.243,7.863-0.801,16.225-7.574,20.807c-7.67,5.19-12.78,13.071-14.387,22.19c-1.608,9.12,0.498,18.273,5.931,25.772 c4.796,6.622,4.796,15.52,0,22.142c-5.433,7.5-7.539,16.652-5.931,25.773c1.608,9.12,6.718,17,14.388,22.189 c6.773,4.582,9.816,12.943,7.573,20.807c-2.54,8.906-1.389,18.227,3.241,26.246c4.63,8.02,12.127,13.678,21.109,15.932 c7.931,1.989,13.651,8.805,14.233,16.962c0.659,9.237,4.929,17.602,12.023,23.555s16.074,8.706,25.285,7.75 c8.135-0.844,15.84,3.606,19.176,11.072c3.779,8.454,10.652,14.854,19.354,18.022c8.702,3.168,18.081,2.683,26.41-1.365 c7.354-3.573,16.118-2.028,21.806,3.846c6.442,6.652,15.09,10.315,24.351,10.315s17.909-3.663,24.351-10.315 c5.689-5.874,14.451-7.419,21.806-3.846c8.329,4.048,17.709,4.533,26.411,1.365c8.702-3.167,15.576-9.567,19.354-18.022 c3.336-7.466,11.04-11.915,19.176-11.072c9.211,0.956,18.191-1.798,25.285-7.75c7.094-5.953,11.364-14.318,12.023-23.555 c0.582-8.156,6.301-14.972,14.233-16.962c8.982-2.253,16.479-7.911,21.109-15.931c4.63-8.02,5.782-17.341,3.241-26.246 c-2.243-7.863,0.801-16.225,7.573-20.807c7.67-5.189,12.78-13.07,14.388-22.189c1.608-9.12-0.498-18.273-5.931-25.773 C454.223,216.623,454.223,207.725,459.02,201.103z M446.851,232.06c3.024,4.175,4.197,9.271,3.302,14.348 c-0.895,5.078-3.74,9.465-8.01,12.354c-12.165,8.231-17.631,23.249-13.603,37.374c1.414,4.958,0.773,10.148-1.804,14.612 c-2.578,4.465-6.751,7.615-11.752,8.869c-14.246,3.574-24.52,15.818-25.565,30.468c-0.367,5.142-2.744,9.8-6.694,13.114 c-3.949,3.313-8.947,4.846-14.077,4.315c-14.606-1.512-28.45,6.477-34.444,19.886c-2.104,4.707-5.93,8.27-10.775,10.034 c-4.845,1.764-10.067,1.493-14.704-0.76c-13.21-6.42-28.95-3.643-39.168,6.907c-3.586,3.703-8.401,5.743-13.557,5.743 s-9.97-2.04-13.557-5.743c-6.549-6.763-15.368-10.33-24.334-10.33c-5.022,0-10.091,1.119-14.834,3.424 c-4.636,2.254-9.859,2.523-14.704,0.76c-4.845-1.763-8.671-5.327-10.775-10.034c-5.993-13.408-19.839-21.398-34.443-19.886 c-5.131,0.53-10.128-1.001-14.077-4.315c-3.95-3.314-6.327-7.971-6.694-13.114c-1.045-14.65-11.319-26.894-25.565-30.467 c-5.001-1.255-9.175-4.405-11.752-8.869c-2.578-4.465-3.218-9.655-1.804-14.612c4.028-14.124-1.439-29.143-13.603-37.374 c-4.27-2.889-7.114-7.276-8.01-12.354c-0.896-5.077,0.277-10.173,3.302-14.348c8.616-11.895,8.616-27.878,0-39.772 c-3.024-4.175-4.197-9.271-3.302-14.348c0.896-5.078,3.74-9.465,8.01-12.354c12.165-8.231,17.631-23.249,13.603-37.374 c-1.414-4.958-0.773-10.147,1.805-14.612c2.578-4.465,6.751-7.614,11.752-8.869c14.245-3.574,24.519-15.818,25.564-30.467 c0.367-5.143,2.745-9.8,6.694-13.114c3.95-3.314,8.953-4.846,14.077-4.315c14.608,1.513,28.45-6.476,34.444-19.886 c2.104-4.707,5.931-8.271,10.775-10.034c4.846-1.764,10.067-1.493,14.704,0.76c13.209,6.42,28.95,3.644,39.168-6.906 c3.587-3.704,8.401-5.743,13.557-5.743s9.97,2.04,13.557,5.743c10.217,10.551,25.958,13.326,39.168,6.906 c4.637-2.253,9.858-2.523,14.704-0.76c4.844,1.763,8.671,5.327,10.775,10.034c5.993,13.409,19.835,21.399,34.444,19.886 c5.13-0.528,10.127,1.001,14.077,4.315c3.949,3.314,6.327,7.971,6.694,13.114c1.045,14.65,11.319,26.893,25.565,30.467 c5.001,1.255,9.174,4.404,11.752,8.869c2.578,4.465,3.219,9.654,1.805,14.612c-4.028,14.124,1.439,29.143,13.603,37.374 c4.27,2.889,7.115,7.276,8.011,12.354c0.895,5.077-0.278,10.173-3.302,14.348C438.235,204.183,438.235,220.166,446.851,232.06z" fill="#c72c72"></path></g></g><g><g><path d="M407.098,222.668c-4.12-0.486-7.856,2.459-8.344,6.579C390.213,301.469,328.843,355.931,256,355.931 c-72.842,0-134.213-54.462-142.754-126.684c-0.488-4.121-4.23-7.067-8.344-6.579c-4.12,0.488-7.066,4.223-6.579,8.344 c9.435,79.782,77.222,139.946,157.677,139.946c80.456,0,148.242-60.164,157.677-139.946 C414.164,226.89,411.218,223.155,407.098,222.668z" fill="#c72c72"></path></g></g><g><g><path d="M413.791,194.336C404.804,113.984,336.968,53.391,256,53.391S107.196,113.984,98.208,194.336 c-0.461,4.123,2.508,7.84,6.632,8.302c4.115,0.459,7.84-2.508,8.302-6.632C121.277,123.269,182.693,68.417,256,68.417 s134.723,54.851,142.858,127.589c0.429,3.84,3.682,6.679,7.457,6.679c0.279,0,0.561-0.015,0.844-0.047 C411.283,202.177,414.252,198.46,413.791,194.336z" fill="#c72c72"></path></g></g><g><g><path d="M352.058,401.68c-4.149,0-7.513,3.364-7.513,7.513v84.015l-85.65-35.763c-1.852-0.774-3.938-0.774-5.789,0l-85.65,35.763 v-84.015c0-4.149-3.364-7.513-7.513-7.513c-4.149,0-7.513,3.364-7.513,7.513v95.294c0,2.513,1.257,4.86,3.348,6.253 c2.091,1.394,4.741,1.648,7.06,0.68L256,472.52l93.163,38.9c0.931,0.389,1.914,0.58,2.894,0.58c1.461,0,2.914-0.426,4.165-1.26 c2.092-1.393,3.348-3.739,3.348-6.253v-95.294C359.571,405.043,356.207,401.68,352.058,401.68z" fill="#c72c72"></path></g></g></svg>