<!-- icon666.com - MILLIONS vector ICONS FREE --><svg version="1.1" id="Layer_1" xmlns="http://www.w3.org/2000/svg" xmlns:xlink="http://www.w3.org/1999/xlink" x="0px" y="0px" viewBox="0 0 512 512" style="enable-background:new 0 0 512 512;" xml:space="preserve"><g><g><path d="M479.155,218.048h-5.009c-0.099-0.101-0.192-0.206-0.298-0.303L277.673,37.438c-12.329-11.334-31-11.412-43.426-0.183 l-98.039,88.603c-3.105,2.807-3.348,7.601-0.541,10.706c2.807,3.107,7.601,3.348,10.706,0.542l71.951-65.026 c-0.009,0.344-0.026,0.684-0.026,1.03c0,20.79,16.913,37.703,37.702,37.703s37.703-16.913,37.703-37.703 c0-0.12-0.008-0.239-0.009-0.358l158.083,145.297H85.387c-4.187,0-7.58,3.393-7.58,7.58c0,4.187,3.393,7.58,7.58,7.58h393.768 c9.752,0,17.686,7.934,17.686,17.686V450.27c0,9.752-7.934,17.686-17.686,17.686H32.845c-9.752,0-17.686-7.934-17.686-17.686 V250.893c0-9.752,7.934-17.686,17.686-17.686h21.18c4.187,0,7.58-3.393,7.58-7.58c0-3.359-2.187-6.203-5.213-7.198l65.234-58.957 c3.105-2.807,3.348-7.601,0.541-10.707c-2.807-3.105-7.6-3.348-10.707-0.541l-76.872,69.476c-0.122,0.111-0.232,0.229-0.347,0.347 h-1.396C14.734,218.048,0,232.782,0,250.893V450.27c0,18.111,14.734,32.845,32.845,32.845h446.309 c18.111,0,32.845-14.734,32.845-32.845V250.893C512,232.782,497.266,218.048,479.155,218.048z M256,95.653 c-12.431,0-22.543-10.113-22.543-22.544c0-12.431,10.112-22.543,22.543-22.543s22.544,10.112,22.544,22.543 C278.544,85.54,268.43,95.653,256,95.653z" fill="#c72c72"></path></g></g><g><g><path d="M134.391,348.212h-17.15c-7.802,0-14.149-6.347-14.149-14.149s6.347-14.149,14.149-14.149h38.879 c4.187,0,7.58-3.393,7.58-7.58c0-4.187-3.393-7.58-7.58-7.58h-38.879c-16.16,0-29.308,13.148-29.308,29.308 s13.148,29.308,29.308,29.308h17.15c7.802,0,14.149,6.348,14.149,14.15s-6.347,14.149-14.149,14.149H95.512 c-4.187,0-7.58,3.393-7.58,7.58c0,4.187,3.393,7.58,7.58,7.58h38.879c16.16,0,29.308-13.148,29.308-29.308 C163.699,361.36,150.551,348.212,134.391,348.212z" fill="#c72c72"></path></g></g><g><g><path d="M219.513,304.476c-21.417,0-38.84,17.423-38.84,38.84v55.933c0,4.187,3.393,7.58,7.58,7.58c4.187,0,7.58-3.393,7.58-7.58 v-31.532h47.361v31.532c0.001,4.186,3.394,7.58,7.581,7.58s7.58-3.393,7.58-7.58v-55.933 C258.354,321.9,240.931,304.476,219.513,304.476z M243.194,352.558h-47.362v-9.242c0-13.057,10.624-23.681,23.681-23.681 s23.681,10.624,23.681,23.681V352.558z" fill="#c72c72"></path></g></g><g><g><path d="M336.898,391.67H300.23v-79.335c0-4.187-3.393-7.58-7.58-7.58c-4.187,0-7.58,3.393-7.58,7.58v86.915 c0,4.187,3.393,7.58,7.58,7.58h44.247c4.187,0,7.58-3.393,7.58-7.58C344.477,395.062,341.085,391.67,336.898,391.67z" fill="#c72c72"></path></g></g><g><g><path d="M416.639,391.67h-36.668v-28.438h22.571c4.187,0,7.58-3.393,7.58-7.58c0-4.187-3.393-7.58-7.58-7.58h-22.571v-28.158 h36.668c4.187,0,7.58-3.393,7.58-7.58c0-4.187-3.393-7.58-7.58-7.58h-44.247c-4.187,0-7.58,3.393-7.58,7.58v86.915 c0,4.187,3.393,7.58,7.58,7.58h44.247c4.187,0,7.58-3.393,7.58-7.58C424.219,395.062,420.826,391.67,416.639,391.67z" fill="#c72c72"></path></g></g><g><g><path d="M151.917,253.874h-79.9c-4.187,0-7.58,3.393-7.58,7.58c0,4.187,3.393,7.58,7.58,7.58h79.901c4.187,0,7.58-3.393,7.58-7.58 C159.496,257.267,156.104,253.874,151.917,253.874z" fill="#c72c72"></path></g></g><g><g><path d="M43.095,253.874c-4.187,0-7.58,3.394-7.58,7.58v89.127c0,4.187,3.393,7.58,7.58,7.58c4.187,0,7.58-3.393,7.58-7.58 v-89.127C50.675,257.266,47.282,253.874,43.095,253.874z" fill="#c72c72"></path></g></g></svg>