<svg width="65" height="65" viewBox="0 0 65 65" fill="none" xmlns="http://www.w3.org/2000/svg">
<g id="noun-chocolate-4020103 1">
<g id="Group">
<path id="Vector" d="M47.8135 14.2625C42.5322 11.0712 37.1498 12.6476 34.7615 13.6531C35.1039 10.5481 33.5906 8.62869 32.1535 7.52777V7.52813C30.7664 6.48024 29.0852 5.89552 27.3474 5.85633C22.6665 5.69673 18.9837 6.94703 16.3856 9.55502C12.2357 13.7191 12.4105 19.8129 12.4185 20.0414V44.8231C12.4199 45.1539 12.5527 45.4706 12.7874 45.7034C13.0224 45.9359 13.3402 46.0658 13.6706 46.0643H13.7051C14.7207 46.0259 38.7802 45.0487 49.4736 39.3805H49.474C50.4918 38.8346 51.3416 38.0213 51.9311 37.0282C52.5209 36.0351 52.8285 34.8997 52.8205 33.7449V22.2195C52.913 18.8821 50.5161 15.9001 47.8134 14.2627L47.8135 14.2625ZM17.3638 10.517C19.5535 8.32435 22.6562 7.21405 26.5947 7.21405C26.8272 7.21405 27.0641 7.21405 27.3056 7.22639C28.7569 7.26302 30.161 7.74834 31.3246 8.61562C33.2289 10.069 33.8495 12.1094 33.1802 14.6811C33.1106 14.9477 33.2082 15.2302 33.4273 15.3974C33.6463 15.5646 33.9445 15.5842 34.1835 15.4468C34.2495 15.409 40.8867 11.6839 47.1065 15.4395C49.672 16.9894 52.083 20.1113 51.2999 23.3168C50.38 27.0942 44.3613 33.7344 14.3938 35.715L13.7844 35.7506V20.0178C13.7844 19.963 13.6321 14.2512 17.3634 10.5176L17.3638 10.517ZM51.4525 33.748C51.4598 34.6544 51.2197 35.546 50.7579 36.3259C50.2962 37.1061 49.6306 37.7456 48.8323 38.175C38.8028 43.4958 15.7036 44.6112 13.7935 44.6943V37.126L14.4842 37.0854C39.0096 35.4604 48.3436 30.687 51.458 26.2007L51.4525 33.748Z" fill="#80233A"/>
<path id="Vector_2" d="M20.2401 33.8401C20.4984 33.8405 20.7345 33.6954 20.851 33.4647C20.9674 33.2344 20.9442 32.958 20.7908 32.7505C16.9314 27.5189 17.4483 26.7177 17.4719 26.6861C17.8708 26.1569 21.575 27.532 23.5656 28.2704C25.9698 29.162 28.4558 30.0855 30.5662 30.4275C31.654 30.6042 32.8187 30.6734 33.2231 29.8537C33.7676 28.7506 32.37 27.3633 29.1555 24.3287C26.4054 21.7327 22.9826 18.5012 22.3632 16.2037C22.2972 15.9578 22.2137 15.5232 22.4009 15.3759C23.2936 14.6712 27.9626 15.8319 38.1746 21.416C41.6407 23.3124 46.7667 23.1244 46.9829 23.1172H46.9825C47.3594 23.1012 47.6525 22.7831 47.6376 22.4062C47.6333 22.2238 47.5553 22.0511 47.4211 21.9274C47.2872 21.8038 47.1088 21.7399 46.9267 21.7501C46.8788 21.7501 41.9676 21.9318 38.83 20.2164C29.1227 14.9087 23.3099 12.9203 21.5539 14.3015C21.1314 14.6338 20.6997 15.2946 21.041 16.5602C21.761 19.2363 25.1909 22.4741 28.2154 25.3301C29.613 26.6504 31.4755 28.4075 31.8847 29.172H31.8851C31.5162 29.1815 31.1477 29.1517 30.7853 29.0828C28.807 28.7618 26.3837 27.8641 24.0415 26.9935C20.1822 25.5604 17.3921 24.5245 16.3808 25.8691C15.6626 26.8209 15.9513 28.4945 19.6907 33.5675L19.6903 33.5679C19.8202 33.7406 20.0241 33.8414 20.2399 33.8399L20.2401 33.8401Z" fill="#80233A"/>
</g>
</g>
</svg>
