<svg width="24" height="24" viewBox="0 0 24 24" fill="none" xmlns="http://www.w3.org/2000/svg">
<g id="Icon color">
<path fill-rule="evenodd" clip-rule="evenodd" d="M3.39583 20.2397H9.98438C10.3152 20.2397 10.5833 20.5078 10.5833 20.8386V22.0365C10.5833 22.3673 10.3152 22.6355 9.98438 22.6355H3.39583C2.07265 22.6355 1 21.5628 1 20.2397V3.46883C1 2.14565 2.07265 1.073 3.39583 1.073H9.98438C10.3152 1.073 10.5833 1.34116 10.5833 1.67196V2.86987C10.5833 3.20067 10.3152 3.46883 9.98438 3.46883H3.39583V20.2397ZM16.1416 4.84608L22.2989 10.9914C22.4653 11.1612 22.5597 11.3886 22.5624 11.6263V12.0815C22.5622 12.3197 22.4674 12.5481 22.2989 12.7164L16.1416 18.8617C16.0291 18.9751 15.8761 19.0389 15.7164 19.0389C15.5566 19.0389 15.4036 18.9751 15.2911 18.8617L14.4406 18.0232C14.3272 17.9107 14.2634 17.7576 14.2634 17.5979C14.2634 17.4382 14.3272 17.2851 14.4406 17.1726L18.5734 13.0518H6.39057C6.05977 13.0518 5.79161 12.7836 5.79161 12.4529V11.2549C5.79161 10.9241 6.05977 10.656 6.39057 10.656H18.5734L14.4406 6.53514C14.3279 6.42474 14.2644 6.27363 14.2644 6.11587C14.2644 5.95812 14.3279 5.80701 14.4406 5.6966L15.2911 4.84608C15.4036 4.73269 15.5566 4.66891 15.7164 4.66891C15.8761 4.66891 16.0291 4.73269 16.1416 4.84608Z" fill="black"/>
<path d="M3.39583 20.2397H2.89583V20.7397H3.39583V20.2397ZM3.39583 3.46883V2.96883H2.89583V3.46883H3.39583ZM22.2989 10.9914L22.656 10.6414L22.6521 10.6375L22.2989 10.9914ZM16.1416 4.84608L15.7866 5.19819L15.7884 5.19998L16.1416 4.84608ZM22.5624 11.6263H23.0625L23.0624 11.6205L22.5624 11.6263ZM22.5624 12.0815L23.0624 12.0819V12.0815H22.5624ZM22.2989 12.7164L22.6521 13.0703L22.6522 13.0702L22.2989 12.7164ZM16.1416 18.8617L15.7884 18.5078L15.7866 18.5096L16.1416 18.8617ZM15.2911 18.8617L15.6461 18.5096L15.6421 18.5057L15.2911 18.8617ZM14.4406 18.0232L14.0885 18.3782L14.0895 18.3792L14.4406 18.0232ZM14.4406 17.1726L14.7927 17.5276L14.7936 17.5267L14.4406 17.1726ZM18.5734 13.0518L18.9264 13.4059L19.783 12.5518H18.5734V13.0518ZM18.5734 10.656V11.156H19.783L18.9264 10.3019L18.5734 10.656ZM14.4406 6.53514L14.7936 6.18106L14.7905 6.178L14.4406 6.53514ZM14.4406 5.6966L14.7905 6.05376L14.7941 6.05016L14.4406 5.6966ZM15.2911 4.84608L15.6446 5.19964L15.6461 5.19818L15.2911 4.84608ZM9.98438 19.7397H3.39583V20.7397H9.98438V19.7397ZM11.0833 20.8386C11.0833 20.2317 10.5913 19.7397 9.98438 19.7397V20.7397C10.039 20.7397 10.0833 20.784 10.0833 20.8386H11.0833ZM11.0833 22.0365V20.8386H10.0833V22.0365H11.0833ZM9.98438 23.1355C10.5913 23.1355 11.0833 22.6435 11.0833 22.0365H10.0833C10.0833 22.0912 10.039 22.1355 9.98438 22.1355V23.1355ZM3.39583 23.1355H9.98438V22.1355H3.39583V23.1355ZM0.5 20.2397C0.5 21.839 1.79651 23.1355 3.39583 23.1355V22.1355C2.34879 22.1355 1.5 21.2867 1.5 20.2397H0.5ZM0.5 3.46883V20.2397H1.5V3.46883H0.5ZM3.39583 0.572998C1.79651 0.572998 0.5 1.86951 0.5 3.46883H1.5C1.5 2.42179 2.34879 1.573 3.39583 1.573V0.572998ZM9.98438 0.572998H3.39583V1.573H9.98438V0.572998ZM11.0833 1.67196C11.0833 1.06502 10.5913 0.572998 9.98438 0.572998V1.573C10.039 1.573 10.0833 1.6173 10.0833 1.67196H11.0833ZM11.0833 2.86987V1.67196H10.0833V2.86987H11.0833ZM9.98438 3.96883C10.5913 3.96883 11.0833 3.47681 11.0833 2.86987H10.0833C10.0833 2.92453 10.039 2.96883 9.98438 2.96883V3.96883ZM3.39583 3.96883H9.98438V2.96883H3.39583V3.96883ZM3.89583 20.2397V3.46883H2.89583V20.2397H3.89583ZM22.6521 10.6375L16.4948 4.49218L15.7884 5.19998L21.9457 11.3453L22.6521 10.6375ZM23.0624 11.6205C23.0582 11.254 22.9126 10.9032 22.656 10.6414L21.9418 11.3414C22.018 11.4191 22.0612 11.5233 22.0625 11.6321L23.0624 11.6205ZM23.0624 12.0815V11.6263H22.0624V12.0815H23.0624ZM22.6522 13.0702C22.9146 12.8082 23.0621 12.4527 23.0624 12.0819L22.0624 12.0811C22.0624 12.1867 22.0203 12.288 21.9456 12.3626L22.6522 13.0702ZM16.4948 19.2156L22.6521 13.0703L21.9457 12.3625L15.7884 18.5078L16.4948 19.2156ZM15.7164 19.5389C16.0094 19.5389 16.2903 19.4219 16.4966 19.2138L15.7866 18.5096C15.768 18.5283 15.7427 18.5389 15.7164 18.5389V19.5389ZM14.9361 19.2138C15.1424 19.4219 15.4233 19.5389 15.7164 19.5389V18.5389C15.69 18.5389 15.6647 18.5283 15.6461 18.5096L14.9361 19.2138ZM14.0895 18.3792L14.9401 19.2178L15.6421 18.5057L14.7916 17.6671L14.0895 18.3792ZM13.7634 17.5979C13.7634 17.8909 13.8804 18.1718 14.0885 18.3782L14.7927 17.6682C14.7739 17.6496 14.7634 17.6243 14.7634 17.5979H13.7634ZM14.0885 16.8176C13.8804 17.024 13.7634 17.3049 13.7634 17.5979H14.7634C14.7634 17.5715 14.7739 17.5462 14.7927 17.5276L14.0885 16.8176ZM18.2203 12.6977L14.0875 16.8186L14.7936 17.5267L18.9264 13.4059L18.2203 12.6977ZM6.39057 13.5518H18.5734V12.5518H6.39057V13.5518ZM5.29161 12.4529C5.29161 13.0598 5.78363 13.5518 6.39057 13.5518V12.5518C6.33592 12.5518 6.29161 12.5075 6.29161 12.4529H5.29161ZM5.29161 11.2549V12.4529H6.29161V11.2549H5.29161ZM6.39057 10.156C5.78363 10.156 5.29161 10.648 5.29161 11.2549H6.29161C6.29161 11.2003 6.33592 11.156 6.39057 11.156V10.156ZM18.5734 10.156H6.39057V11.156H18.5734V10.156ZM14.0875 6.88921L18.2203 11.01L18.9264 10.3019L14.7936 6.18108L14.0875 6.88921ZM13.7644 6.11587C13.7644 6.408 13.882 6.68784 14.0906 6.89229L14.7905 6.178C14.7738 6.16164 14.7644 6.13925 14.7644 6.11587H13.7644ZM14.0906 5.33946C13.882 5.54391 13.7644 5.82374 13.7644 6.11587H14.7644C14.7644 6.0925 14.7738 6.0701 14.7905 6.05375L14.0906 5.33946ZM14.9375 4.49253L14.087 5.34305L14.7941 6.05016L15.6446 5.19964L14.9375 4.49253ZM15.7164 4.16891C15.4233 4.16891 15.1424 4.28593 14.9361 4.49398L15.6461 5.19818C15.6647 5.17945 15.69 5.16891 15.7164 5.16891V4.16891ZM16.4966 4.49398C16.2903 4.28593 16.0094 4.16891 15.7164 4.16891V5.16891C15.7427 5.16891 15.768 5.17945 15.7866 5.19818L16.4966 4.49398Z" fill="white"/>
</g>
</svg>
