<!-- icon666.com - MILLIONS vector ICONS FREE --><svg id="Layer_1" enable-background="new 0 0 2000 2000" viewBox="0 0 2000 2000" fill="currentColor" xmlns="http://www.w3.org/2000/svg"><g><path d="m1712.7 1091.43c27.8-24.93 59.3-53.19 59.3-91.43s-31.51-66.49-59.3-91.43c-15.04-13.49-35.64-31.97-37.79-42.84-2.35-11.87 9.44-36.5 18.92-56.3 15.85-33.1 33.81-70.63 19.57-104.96-14.47-34.9-54.14-48.83-89.14-61.12-20.37-7.15-45.73-16.06-52.13-25.61-6.54-9.77-5.1-36.81-3.94-58.53 1.96-36.85 4.19-78.61-22.3-105.1s-68.25-24.26-105.1-22.3c-21.73 1.16-48.76 2.6-58.53-3.94-9.55-6.4-18.46-31.75-25.61-52.13-12.29-35-26.22-74.67-61.12-89.14-34.33-14.24-71.85 3.73-104.96 19.57-19.79 9.47-44.42 21.26-56.3 18.92-10.88-2.15-29.35-22.75-42.84-37.79-24.93-27.8-53.19-59.3-91.43-59.3-38.23 0-66.49 31.51-91.43 59.3-13.49 15.04-31.97 35.64-42.84 37.79-11.88 2.35-36.5-9.44-56.3-18.92-33.11-15.85-70.63-33.81-104.96-19.57-34.9 14.47-48.83 54.14-61.12 89.14-7.15 20.37-16.06 45.73-25.61 52.13-9.77 6.54-36.81 5.1-58.53 3.94-36.85-1.97-78.61-4.19-105.1 22.3s-24.27 68.25-22.3 105.1c1.16 21.73 2.6 48.76-3.94 58.53-6.4 9.55-31.75 18.46-52.13 25.61-35 12.29-74.67 26.22-89.14 61.12-14.24 34.33 3.73 71.85 19.57 104.96 9.47 19.79 21.26 44.42 18.92 56.3-2.15 10.88-22.75 29.35-37.79 42.84-27.8 24.93-59.3 53.19-59.3 91.43s31.51 66.49 59.3 91.43c15.04 13.49 35.64 31.97 37.79 42.84 2.35 11.87-9.44 36.5-18.92 56.3-15.85 33.1-33.81 70.63-19.57 104.96 14.47 34.9 54.14 48.83 89.14 61.12 20.37 7.15 45.73 16.06 52.13 25.61 6.54 9.77 5.1 36.81 3.94 58.53-1.96 36.85-4.19 78.61 22.3 105.1s68.25 24.27 105.1 22.3c21.73-1.16 48.76-2.6 58.53 3.94 9.55 6.4 18.46 31.75 25.61 52.13 12.29 35 26.22 74.67 61.12 89.14 8.79 3.65 17.78 5.18 26.86 5.18 26.38 0 53.46-12.96 78.09-24.75 19.79-9.47 44.41-21.26 56.3-18.92 10.88 2.15 29.35 22.75 42.84 37.79 24.93 27.8 53.19 59.3 91.43 59.3 38.23 0 66.49-31.51 91.43-59.3 13.49-15.04 31.97-35.64 42.84-37.79 11.87-2.35 36.5 9.44 56.3 18.92 33.1 15.85 70.63 33.81 104.96 19.57 34.9-14.47 48.83-54.14 61.12-89.14 7.15-20.37 16.06-45.73 25.61-52.13 9.77-6.54 36.81-5.1 58.53-3.94 36.85 1.97 78.61 4.19 105.1-22.3s24.27-68.25 22.3-105.1c-1.16-21.73-2.6-48.76 3.94-58.53 6.4-9.55 31.75-18.46 52.13-25.61 35-12.29 74.67-26.22 89.14-61.12 14.24-34.33-3.73-71.85-19.57-104.96-9.47-19.79-21.26-44.42-18.92-56.3 2.16-10.88 22.76-29.35 37.8-42.84zm-40.07-44.67c-24.85 22.29-50.55 45.34-56.58 75.86-6.22 31.44 8.97 63.16 23.66 93.85 6.7 14 13.03 27.21 16.47 38.69 3.41 11.37 2.39 15.94 1.8 17.37-4.21 10.15-33.93 20.59-53.6 27.49-31.75 11.15-64.59 22.68-82.11 48.84-17.66 26.38-15.8 61.32-14 95.11 1.1 20.67 2.77 51.9-4.81 59.48s-38.81 5.91-59.48 4.81c-33.79-1.8-68.73-3.67-95.11 14-26.16 17.52-37.69 50.35-48.84 82.1-6.91 19.67-17.34 49.39-27.49 53.6-1.44.6-6 1.61-17.37-1.8-11.48-3.44-24.7-9.77-38.69-16.47-30.68-14.69-62.41-29.88-93.84-23.66-30.53 6.04-53.58 31.73-75.87 56.58-14.9 16.61-35.31 39.37-46.76 39.37s-31.86-22.75-46.76-39.37c-22.29-24.85-45.34-50.55-75.86-56.58-4.97-.98-9.94-1.43-14.92-1.43-26.52 0-53.09 12.72-78.93 25.09-14 6.7-27.21 13.03-38.69 16.47-11.37 3.41-15.94 2.39-17.37 1.8-10.15-4.21-20.58-33.93-27.49-53.6-11.15-31.75-22.68-64.59-48.84-82.11-26.38-17.66-61.32-15.8-95.11-14-20.67 1.1-51.9 2.77-59.48-4.81s-5.91-38.81-4.81-59.48c1.8-33.79 3.67-68.73-14-95.11-17.52-26.16-50.35-37.69-82.11-48.84-19.67-6.91-49.39-17.34-53.6-27.49-.59-1.44-1.61-6 1.8-17.37 3.44-11.48 9.77-24.7 16.47-38.69 14.69-30.68 29.88-62.41 23.66-93.85-6.04-30.53-31.73-53.57-56.58-75.86-16.61-14.9-39.37-35.31-39.37-46.76s22.75-31.86 39.37-46.76c24.85-22.29 50.55-45.34 56.58-75.86 6.22-31.44-8.97-63.16-23.66-93.85-6.7-14-13.03-27.21-16.47-38.69-3.41-11.37-2.39-15.94-1.8-17.37 4.21-10.15 33.93-20.59 53.6-27.49 31.75-11.15 64.59-22.68 82.11-48.84 17.66-26.38 15.8-61.32 14-95.11-1.1-20.67-2.77-51.9 4.81-59.48s38.81-5.91 59.48-4.81c33.79 1.8 68.73 3.67 95.11-14 26.16-17.52 37.69-50.35 48.84-82.1 6.91-19.67 17.34-49.39 27.49-53.6 1.43-.6 6-1.61 17.37 1.8 11.48 3.44 24.7 9.77 38.69 16.47 30.68 14.69 62.41 29.88 93.84 23.66 30.53-6.04 53.58-31.73 75.87-56.58 14.89-16.63 35.3-39.38 46.75-39.38s31.86 22.75 46.76 39.37c22.29 24.85 45.34 50.55 75.86 56.58 4.97.98 9.94 1.43 14.92 1.43 26.52 0 53.09-12.72 78.93-25.09 14-6.7 27.21-13.03 38.69-16.47 11.37-3.41 15.94-2.39 17.37-1.8 10.15 4.21 20.58 33.93 27.49 53.6 11.15 31.75 22.68 64.59 48.84 82.11 26.38 17.66 61.32 15.8 95.11 14 20.67-1.1 51.9-2.77 59.48 4.81s5.91 38.81 4.81 59.48c-1.8 33.79-3.67 68.73 14 95.11 17.52 26.16 50.35 37.69 82.11 48.84 19.67 6.91 49.39 17.34 53.6 27.49.59 1.44 1.61 6-1.8 17.37-3.44 11.48-9.77 24.7-16.47 38.69-14.69 30.68-29.88 62.41-23.66 93.85 6.04 30.53 31.73 53.57 56.58 75.86 16.61 14.9 39.37 35.31 39.37 46.76s-22.74 31.87-39.36 46.77z" fill="#c72c72"></path><path d="m796.08 812.81c-15.57-5.67-32.78 2.36-38.45 17.93l-84.93 233.36-70.16-231.79c-3.74-12.36-14.97-20.94-27.89-21.3-12.94-.35-24.6 7.59-29.02 19.73l-115.74 318c-5.67 15.57 2.36 32.78 17.93 38.45 3.39 1.23 6.85 1.82 10.26 1.82 12.25 0 23.76-7.57 28.19-19.75l84.94-233.36 70.16 231.79c3.74 12.36 14.98 20.94 27.89 21.3 12.92.34 24.6-7.59 29.02-19.73l115.74-318c5.66-15.57-2.37-32.78-17.94-38.45z" fill="#c72c72"></path><path d="m1168.97 871c16.57 0 30-13.43 30-30s-13.43-30-30-30h-212c-12.61 0-23.88 7.89-28.19 19.74l-115.74 318c-3.35 9.2-2 19.45 3.62 27.47 5.61 8.02 14.79 12.79 24.57 12.79h212c16.57 0 30-13.43 30-30s-13.43-30-30-30h-169.16l36.03-99h190.99c16.57 0 30-13.43 30-30s-13.43-30-30-30h-169.15l36.03-99z" fill="#c72c72"></path><path d="m1571.25 813.74c-15.31-6.34-32.86.93-39.2 16.24l-101.1 244.14-27.78-80.12c-3.31-9.56-11.22-16.8-21.03-19.27s-20.2.18-27.64 7.03l-86.48 79.66 64.75-211.16c4.86-15.84-4.05-32.62-19.89-37.48s-32.62 4.05-37.48 19.89l-97.24 317.08c-3.97 12.95 1.23 26.96 12.7 34.18 4.92 3.1 10.46 4.61 15.98 4.61 7.35 0 14.64-2.69 20.33-7.93l134.3-123.7 38.64 111.46c4.08 11.77 15.01 19.79 27.46 20.16 12.49.36 23.83-7 28.6-18.51l131.31-317.08c6.35-15.31-.92-32.86-16.23-39.2z" fill="#c72c72"></path></g></svg>