<!-- icon666.com - MILLIONS vector ICONS FREE --><svg id="expand" viewBox="0 0 512 512" xmlns="http://www.w3.org/2000/svg"><path d="m443.27 133.36c-9.29-37.19-22-56.05-37.92-56.05a19.65 19.65 0 0 0 -8.43 1.91l-51.92 19.04-175.71 64.39h-83.93a8 8 0 0 0 -7 4.16c-15.36 27.99-22.84 57.7-22.36 88.29.47 28.41 7.89 58.55 22.06 89.57a8 8 0 0 0 7.28 4.68h83.93l13.13 4.81a60.69 60.69 0 0 0 -3.12 19.28 61.26 61.26 0 0 0 118.1 22.84l99.24 36.36a19.65 19.65 0 0 0 8.71 2.05c15.87 0 28.63-18.86 37.92-56.05 8.23-32.86 12.75-76.41 12.75-122.64s-4.52-89.78-12.73-122.64zm-75.83 245.28a180.34 180.34 0 0 0 9.9 29.89l-23.67-8.67c-12.57-29.7-20.32-84.26-20.32-143.86s7.76-114.2 20.33-143.89l23.68-8.67a180 180 0 0 0 -9.92 29.92c-8.21 32.86-12.73 76.41-12.73 122.64s4.52 89.78 12.73 122.64zm-277.27-200h67.54a174.25 174.25 0 0 0 -16.37 76.45 8 8 0 0 0 8 7.87h.13a8 8 0 0 0 7.87-8.13c-.44-26.84 5.95-53 19-77.72l157.75-57.81c-10.45 33-16.71 83.05-16.71 136.69s6.25 103.71 16.7 136.67l-39-14.3h-.06l-99.17-36.36h-.07l-19.17-7a243.58 243.58 0 0 1 -13.61-39 8 8 0 1 0 -15.51 3.9 250.7 250.7 0 0 0 11.06 33.47h-68c-24.64-56.61-24.77-107.32-.38-154.72zm150.38 240a45.25 45.25 0 0 1 -43.1-59l84.92 31.11a45.08 45.08 0 0 1 -41.82 27.94zm187.2-43.93c-8.68 34.75-18.45 43.93-22.4 43.93a4 4 0 0 1 -1.72-.46l-.19-.1c-4.67-2.41-13-13.34-20.48-43.37-7.9-31.63-12.25-73.8-12.25-118.76s4.35-87.13 12.25-118.76c7.55-30.23 15.92-41.11 20.57-43.42l.37-.17a3.81 3.81 0 0 1 1.45-.34c3.95 0 13.72 9.18 22.4 43.93 7.9 31.68 12.25 73.81 12.25 118.81s-4.35 87.13-12.25 118.76z" fill="#c72c72"></path></svg>