<?xml version="1.0" standalone="no"?>
<!DOCTYPE svg PUBLIC "-//W3C//DTD SVG 20010904//EN"
 "http://www.w3.org/TR/2001/REC-SVG-20010904/DTD/svg10.dtd">
<svg version="1.0" xmlns="http://www.w3.org/2000/svg"
 width="512.000000pt" height="512.000000pt" viewBox="0 0 512.000000 512.000000"
 preserveAspectRatio="xMidYMid meet">
<metadata>
Created by potrace 1.14, written by Peter Selinger 2001-2017
</metadata>
<g transform="translate(0.000000,512.000000) scale(0.100000,-0.100000)"
fill="#000000" stroke="none">
<path d="M2305 5099 c-423 -43 -831 -189 -1175 -417 -1300 -864 -1501 -2653
-425 -3771 401 -416 922 -676 1530 -763 118 -17 512 -17 630 0 608 87 1129
347 1530 763 925 962 925 2456 0 3418 -391 406 -901 666 -1485 756 -126 19
-477 28 -605 14z m233 -456 c-10 -2 -28 -2 -40 0 -13 2 -5 4 17 4 22 1 32 -1
23 -4z m240 0 c-15 -2 -42 -2 -60 0 -18 2 -6 4 27 4 33 0 48 -2 33 -4z m-321
-9 c-3 -3 -12 -4 -19 -1 -8 3 -5 6 6 6 11 1 17 -2 13 -5z m400 0 c-3 -3 -12
-4 -19 -1 -8 3 -5 6 6 6 11 1 17 -2 13 -5z m190 -40 c-3 -3 -12 -4 -19 -1 -8
3 -5 6 6 6 11 1 17 -2 13 -5z m245 -104 c-2 -7 5 -9 18 -5 13 4 22 1 26 -9 3
-9 10 -14 14 -11 4 2 35 -12 69 -33 171 -103 441 -344 426 -380 -18 -41 -36
-197 -37 -317 -1 -142 21 -257 82 -425 l29 -81 -32 -19 c-54 -34 -70 -27 -130
53 -77 102 -127 201 -177 347 -61 181 -128 345 -174 425 -43 75 -199 239 -251
265 -17 8 -46 24 -66 36 -19 12 -57 29 -83 38 -27 9 -56 21 -66 26 -32 17
-164 40 -265 46 -361 23 -659 -201 -731 -550 -16 -75 -17 -210 -2 -284 15 -72
82 -203 132 -259 49 -54 166 -147 231 -183 52 -29 260 -133 305 -153 19 -8 71
-32 115 -52 44 -20 89 -40 100 -44 99 -42 334 -168 437 -236 140 -93 288 -230
353 -327 21 -32 44 -58 51 -58 19 0 19 1 -22 83 -95 190 -213 322 -393 441
-116 76 -165 103 -481 263 -135 68 -246 128 -248 133 -2 6 -8 10 -13 10 -13 0
-47 28 -109 90 -56 55 -99 130 -119 205 -16 58 -7 220 16 280 47 128 136 224
245 264 71 26 209 38 273 24 44 -10 44 -13 30 -99 -8 -46 6 -82 55 -137 l30
-34 -53 -7 c-28 -3 -106 -6 -172 -6 l-120 1 24 20 c13 11 50 27 82 37 64 19
77 41 37 63 -33 18 -176 15 -219 -3 -88 -38 -155 -154 -146 -253 10 -110 51
-198 128 -272 43 -40 159 -118 209 -140 14 -6 50 -22 80 -35 95 -44 164 -74
200 -89 70 -29 321 -159 367 -190 191 -131 335 -279 427 -436 55 -94 114 -251
131 -349 19 -111 19 -282 0 -376 -28 -134 -147 -403 -248 -563 -57 -88 -176
-243 -226 -291 -40 -39 -205 -138 -209 -125 -2 5 -12 7 -23 4 -11 -3 -18 -11
-16 -17 3 -8 -177 -10 -675 -8 -622 2 -681 4 -705 19 -20 13 -27 15 -31 5 -3
-10 -7 -10 -20 0 -13 11 -14 11 -8 0 8 -13 -37 12 -124 71 -75 51 -150 114
-248 208 -99 96 -101 102 -82 185 19 84 29 249 20 344 -10 103 -46 253 -84
346 -27 65 -24 74 26 100 38 20 58 8 114 -68 82 -112 124 -200 184 -383 103
-314 213 -498 366 -613 71 -54 189 -117 237 -128 15 -3 30 -10 33 -15 3 -5 17
-9 32 -9 15 0 50 -7 77 -16 68 -21 391 -21 378 0 -3 5 6 7 21 4 15 -3 24 -3
21 0 -3 3 28 20 69 37 117 51 223 140 293 245 17 25 48 90 69 145 39 99 39
101 39 240 0 120 -3 150 -23 206 -63 182 -205 314 -490 457 -68 34 -129 62
-136 62 -8 0 -19 7 -26 15 -7 8 -18 15 -25 15 -13 0 -68 23 -95 40 -8 5 -40
19 -70 32 -117 49 -382 189 -466 246 -145 98 -256 202 -341 320 -48 66 -81 85
-62 35 22 -58 94 -181 147 -252 57 -74 157 -168 235 -219 23 -15 44 -29 47
-32 14 -15 217 -129 310 -175 14 -7 93 -45 175 -86 195 -95 276 -147 352 -224
100 -102 126 -170 125 -330 0 -116 -21 -188 -79 -273 -46 -67 -139 -137 -212
-159 -60 -19 -190 -23 -255 -10 -37 8 -38 10 -31 40 21 98 20 106 -23 166
l-40 58 56 9 c31 5 107 7 167 4 l110 -5 -64 -32 c-35 -18 -72 -33 -83 -33 -11
0 -18 -7 -18 -19 0 -27 53 -45 131 -44 82 1 142 26 187 77 50 57 65 100 66
196 0 93 -12 128 -81 222 -35 49 -130 126 -183 149 -16 8 -30 17 -30 21 0 5
-6 8 -13 8 -7 0 -39 13 -72 29 -82 40 -153 71 -160 71 -3 0 -24 9 -48 19 -23
10 -49 22 -57 25 -8 3 -22 10 -30 15 -8 5 -52 28 -97 50 -45 22 -112 58 -148
81 -37 22 -70 40 -74 40 -4 0 -16 8 -27 18 -10 10 -35 29 -54 42 -48 34 -94
75 -157 142 -58 60 -163 192 -163 203 0 4 -8 19 -18 33 -29 41 -97 209 -116
282 -36 145 -36 347 -2 494 8 33 17 77 20 96 7 41 137 265 217 373 77 104 311
335 403 398 44 30 84 53 88 52 4 -2 8 2 8 7 0 6 7 10 15 10 8 0 15 4 15 9 0 4
119 9 265 10 159 1 265 -2 265 -7 0 -5 11 -9 25 -9 13 0 22 3 19 8 -6 10 9 12
19 3 10 -11 117 -14 117 -3 0 6 97 9 270 7 175 -2 270 1 270 7 0 6 3 6 8 0 6
-10 15 -11 40 -6 4 1 0 6 -8 12 -13 9 -13 10 0 6 8 -2 14 -10 12 -17z m-507
-196 c39 -15 82 -35 97 -46 14 -10 36 -18 48 -18 18 0 21 4 18 25 -3 13 -2 23
1 21 3 -2 24 -12 46 -22 61 -27 125 -72 183 -128 79 -75 106 -121 125 -209 25
-114 75 -201 140 -242 13 -8 14 -20 6 -72 -12 -83 -48 -161 -93 -201 -20 -17
-40 -32 -44 -32 -4 0 -7 26 -8 58 0 91 -43 152 -105 152 -10 0 -18 10 -21 28
-8 47 -12 56 -32 74 -23 21 -76 32 -116 24 -17 -3 -43 -9 -60 -12 -16 -4 -30
-10 -30 -14 0 -4 -17 -12 -38 -19 -32 -11 -47 -10 -92 3 -29 9 -70 16 -89 16
l-36 0 50 25 c77 40 153 55 269 55 81 0 121 -5 171 -21 36 -12 65 -26 65 -31
0 -5 6 -15 13 -23 6 -7 21 -25 32 -41 11 -15 32 -43 48 -62 15 -19 27 -41 27
-48 0 -24 28 -15 34 11 7 29 -4 54 -38 88 -13 14 -34 43 -45 65 -30 58 -71
186 -71 219 0 44 -90 124 -220 195 -159 86 -398 107 -550 48 -169 -65 -319
-185 -397 -317 -45 -77 -38 -49 21 77 28 62 96 150 157 203 51 44 178 117 204
117 9 0 15 10 15 25 0 16 -6 25 -15 25 -8 0 -15 6 -15 14 0 19 47 25 175 21
81 -2 113 -8 170 -31z m197 -317 c-4 -55 10 -100 42 -126 18 -15 21 -31 6 -31
-12 0 -75 68 -106 114 -15 22 -20 41 -16 66 7 52 18 62 51 45 26 -13 27 -17
23 -68z m118 -42 c0 -31 21 -53 55 -57 25 -3 31 -9 41 -45 11 -38 11 -41 -4
-36 -53 16 -70 28 -98 66 -52 69 -57 82 -50 112 l7 28 25 -23 c13 -13 24 -33
24 -45z m-63 -302 c-4 -3 0 -11 8 -17 8 -6 36 -60 62 -120 46 -105 73 -141 73
-97 0 23 16 29 22 9 13 -37 -28 -138 -55 -138 -6 0 -36 48 -66 106 -32 61 -78
131 -108 166 -30 33 -51 63 -48 67 9 8 75 29 99 30 11 1 16 -2 13 -6z m-1006
-1734 c28 -55 63 -114 76 -130 14 -16 22 -29 18 -29 -3 0 12 -17 33 -37 45
-43 41 -54 -23 -72 -41 -11 -57 -3 -69 37 -4 12 -12 22 -17 22 -5 0 -9 5 -9
10 0 6 -16 44 -35 84 -19 41 -35 79 -35 85 0 20 -28 11 -35 -11 -7 -20 -9 -17
-12 16 -5 42 11 94 35 114 9 6 17 12 18 12 2 0 26 -45 55 -101z m-219 -74 c-2
-38 0 -65 6 -65 6 0 15 -13 20 -30 9 -24 20 -32 55 -42 26 -7 43 -16 41 -23
-6 -16 12 -63 33 -83 11 -11 38 -18 85 -20 66 -4 88 1 166 36 29 13 39 13 90
-2 32 -9 74 -16 93 -17 30 0 26 -3 -40 -29 -135 -53 -301 -63 -415 -24 -37 13
-55 27 -80 62 -17 26 -44 59 -61 74 -16 16 -31 33 -31 38 -1 6 -2 19 -3 31 -2
33 -45 22 -49 -13 -4 -31 22 -86 43 -95 8 -3 13 -9 10 -13 -3 -5 0 -12 7 -17
28 -18 98 -197 98 -251 0 -46 94 -126 235 -199 105 -55 165 -67 315 -68 153 0
212 14 320 72 60 32 171 115 195 145 56 69 99 117 103 114 9 -10 -64 -139
-107 -189 -68 -79 -127 -124 -218 -168 -46 -22 -83 -45 -83 -52 0 -7 15 -19
32 -26 l33 -15 -30 -8 c-54 -15 -179 -20 -230 -10 -67 14 -161 49 -208 79 -43
27 -64 25 -69 -7 -3 -21 -5 -21 -66 11 -81 42 -179 123 -227 189 -27 37 -43
73 -56 129 -10 42 -27 97 -38 123 -22 53 -86 128 -108 128 -9 0 -13 6 -9 15 3
8 11 46 17 83 6 37 18 81 26 97 18 35 82 105 98 105 6 0 9 -24 7 -65z m182
-394 c68 -62 105 -138 75 -156 -14 -9 -49 24 -49 47 0 32 -19 58 -43 58 -33 0
-44 11 -52 52 -7 35 -6 36 17 31 12 -3 36 -17 52 -32z m198 -99 c15 -25 19
-44 15 -73 -3 -23 -8 -43 -11 -46 -5 -5 -66 16 -66 23 0 2 5 25 11 53 9 45 8
53 -15 90 -14 22 -26 44 -26 48 0 12 70 -61 92 -95z m-205 -628 c-3 -3 -12 -4
-19 -1 -8 3 -5 6 6 6 11 1 17 -2 13 -5z m80 -30 c-3 -3 -12 -4 -19 -1 -8 3 -5
6 6 6 11 1 17 -2 13 -5z m160 -40 c-3 -3 -12 -4 -19 -1 -8 3 -5 6 6 6 11 1 17
-2 13 -5z m510 0 c-3 -3 -12 -4 -19 -1 -8 3 -5 6 6 6 11 1 17 -2 13 -5z m-440
-10 c-3 -3 -12 -4 -19 -1 -8 3 -5 6 6 6 11 1 17 -2 13 -5z m386 -1 c-7 -2 -19
-2 -25 0 -7 3 -2 5 12 5 14 0 19 -2 13 -5z"/>
<path d="M1990 4346 c-37 -14 -157 -85 -199 -117 -311 -243 -437 -632 -318
-979 51 -148 113 -246 237 -371 99 -100 192 -171 312 -239 58 -33 269 -137
333 -165 22 -9 63 -27 90 -40 28 -12 68 -30 90 -40 197 -86 409 -207 496 -282
121 -104 210 -237 240 -358 20 -82 24 -123 23 -235 -1 -131 -27 -252 -76 -360
-31 -68 -101 -171 -137 -204 -26 -23 -28 -56 -3 -56 22 0 135 58 209 106 68
45 196 170 239 234 294 433 191 941 -258 1273 -76 57 -88 64 -213 132 -102 56
-307 155 -320 155 -3 0 -45 18 -93 41 -48 23 -98 46 -112 51 -14 6 -32 14 -40
19 -8 4 -55 28 -105 53 -265 135 -409 261 -490 431 -57 121 -70 184 -70 340 0
103 5 148 24 220 13 50 26 95 30 100 4 6 14 26 21 45 21 52 69 129 117 186 24
28 43 56 43 63 0 14 -26 13 -70 -3z m-269 -398 c-6 -31 -34 -58 -47 -45 -6 5
41 77 50 77 2 0 1 -14 -3 -32z m-21 -158 c0 -33 -4 -42 -22 -49 -34 -13 -78
-64 -93 -107 -19 -56 -39 -58 -30 -3 4 24 11 51 15 59 4 8 10 32 14 53 4 20
11 37 16 37 6 0 10 6 10 13 0 14 41 34 73 36 13 1 17 -7 17 -39z m1 -117 c1
-5 3 -19 4 -33 2 -14 5 -32 7 -40 2 -8 -3 -15 -9 -14 -7 1 -24 2 -37 3 -33 2
-38 22 -15 60 17 28 47 42 50 24z m-7 -149 c23 -12 32 -22 28 -32 -4 -11 -1
-13 9 -7 8 4 -2 -9 -22 -30 -32 -33 -39 -36 -58 -25 -12 6 -41 10 -64 8 -41
-3 -42 -2 -48 32 -8 51 12 70 72 70 27 0 64 -7 83 -16z m74 -129 c17 -36 15
-44 -14 -99 -21 -40 -25 -58 -20 -93 5 -41 3 -47 -27 -74 -30 -28 -33 -28 -45
-12 -19 25 -11 167 12 215 18 36 62 88 76 88 4 0 12 -11 18 -25z m-135 -25
c-3 -35 -42 -124 -47 -110 -37 99 -37 104 -19 118 24 17 69 12 66 -8z m215
-124 c18 -24 32 -49 32 -54 0 -12 -76 -21 -92 -11 -18 11 6 109 27 109 1 0 16
-20 33 -44z m85 -131 c71 -30 127 -123 127 -211 0 -42 -14 -112 -24 -122 -4
-3 -22 2 -40 11 l-34 16 5 60 c5 50 2 65 -17 95 -40 65 -99 82 -160 45 l-34
-21 -27 32 c-15 18 -25 38 -23 45 3 7 26 24 52 38 54 31 120 35 175 12z m264
-205 c-3 -17 -64 -37 -76 -24 -5 5 -12 31 -16 57 l-6 48 50 -33 c29 -19 50
-39 48 -48z m-298 46 c22 -23 32 -88 17 -103 -7 -7 -116 85 -116 97 0 13 31
29 56 30 11 0 31 -11 43 -24z m404 -90 c23 -18 13 -40 -37 -84 -44 -38 -102
-57 -150 -48 -40 8 -41 10 -25 53 9 27 16 31 58 37 32 4 55 14 71 31 26 28 56
31 83 11z m126 -72 c39 -32 61 -105 55 -176 -3 -29 -6 -54 -8 -56 -2 -2 -18 4
-35 13 -26 13 -31 21 -31 51 0 48 -23 99 -54 119 l-26 17 21 29 c25 36 39 36
78 3z m130 -50 c26 -13 30 -20 25 -37 -10 -31 -6 -139 5 -170 12 -30 7 -32
-32 -14 -20 9 -25 17 -20 32 9 31 5 153 -7 175 -19 35 -15 36 29 14z m-238
-47 c30 -23 50 -77 28 -77 -20 0 -119 50 -119 60 0 11 36 29 60 29 8 0 22 -5
31 -12z m389 -54 c0 -46 22 -96 55 -121 l27 -21 -22 -31 c-23 -32 -45 -33 -79
-6 -31 24 -61 110 -61 172 0 33 3 63 6 67 3 3 21 -2 40 -10 29 -14 34 -22 34
-50z m126 -23 c54 -25 64 -33 54 -45 -17 -21 -65 -28 -88 -14 -22 14 -42 50
-42 74 0 20 -1 20 76 -15z m193 -99 c11 -7 11 -15 0 -44 -11 -32 -17 -35 -60
-41 -31 -4 -60 -16 -80 -33 -29 -25 -33 -26 -57 -12 -35 20 -37 32 -7 67 47
56 159 91 204 63z m110 -60 c22 -17 23 -21 12 -49 -9 -22 -10 -40 -2 -68 27
-102 108 -139 189 -87 21 13 26 13 44 -4 43 -39 42 -51 -9 -83 -38 -24 -58
-30 -104 -30 -71 0 -97 9 -138 50 -49 50 -64 86 -65 165 -2 121 18 149 73 106z
m129 -97 c28 -25 52 -49 52 -53 0 -4 -11 -13 -25 -19 -30 -14 -69 -2 -84 27
-13 23 -15 91 -3 91 4 0 31 -21 60 -46z m-256 -33 c4 -25 6 -47 4 -49 -7 -6
-96 58 -96 68 0 15 33 30 60 27 21 -2 26 -9 32 -46z m456 -249 c6 -78 -30
-183 -76 -225 -22 -20 -33 -12 -51 36 -9 24 -7 33 20 70 28 38 30 47 26 94 -5
49 -4 54 25 78 39 33 50 23 56 -53z m-132 -7 c9 -23 -10 -90 -26 -92 -14 -2
-70 67 -70 86 0 6 15 12 33 14 17 2 38 5 45 5 7 1 15 -5 18 -13z m212 -115
l21 -60 -22 -15 c-28 -20 -58 -20 -51 0 4 8 1 15 -4 15 -7 0 -5 11 4 28 7 15
17 42 20 60 3 17 8 32 9 32 2 0 12 -27 23 -60z m-38 -134 c19 0 42 2 50 4 12
4 15 -5 15 -45 0 -45 -3 -50 -27 -59 -35 -12 -131 10 -155 36 -16 18 -15 20
18 48 21 18 40 27 49 23 8 -4 31 -7 50 -7z m-38 -170 c4 -6 8 -14 8 -18 0 -7
-53 -59 -56 -55 0 1 -4 23 -7 50 l-7 47 28 -6 c15 -4 30 -12 34 -18z m93 -3
c-3 -10 -13 -45 -22 -78 -21 -81 -38 -112 -73 -130 -42 -22 -50 -19 -50 17 0
33 24 68 46 68 18 0 63 57 70 88 10 45 13 52 25 52 7 0 8 -7 4 -17z m-137
-328 c-17 -25 -33 -44 -34 -42 -1 1 1 18 5 37 5 25 13 36 31 41 14 4 26 7 27
8 2 1 -12 -19 -29 -44z"/>
</g>
</svg>
